<svg width="32" height="33" viewBox="0 0 32 33" fill="none" xmlns="http://www.w3.org/2000/svg">
<path d="M0 2.74442C0 1.47074 1.0587 0.437599 2.36474 0.437599H29.6353C30.9412 0.437599 32 1.47074 32 2.74442V30.3338C32 31.6079 30.9412 32.6406 29.6353 32.6406H2.36474C1.0587 32.6406 0 31.6079 0 30.3338V2.74442Z" fill="#FCFAF2"/>
<path fill-rule="evenodd" clip-rule="evenodd" d="M9.6996 27.395V12.8536H4.86628V27.395H9.6996ZM7.28292 10.8682C8.96839 10.8682 10.0175 9.75154 10.0175 8.35608C9.98605 6.92921 8.9684 5.84358 7.31489 5.84358C5.66156 5.84358 4.58057 6.92921 4.58057 8.35608C4.58057 9.75154 5.62941 10.8682 7.25142 10.8682H7.28292Z" fill="#3C1F1B"/>
<path fill-rule="evenodd" clip-rule="evenodd" d="M12.3745 27.395H17.2078V19.2744C17.2078 18.8398 17.2392 18.4057 17.3668 18.095C17.7162 17.2267 18.5115 16.3273 19.8467 16.3273C21.5957 16.3273 22.2953 17.6608 22.2953 19.6157V27.395H27.1282V19.0571C27.1282 14.5907 24.7437 12.5123 21.5637 12.5123C18.9563 12.5123 17.8116 13.9697 17.1756 14.9624H17.2079V12.8536H12.3746C12.4381 14.218 12.3745 27.395 12.3745 27.395Z" fill="#3C1F1B"/>
</svg>
