<svg width="762" height="64" viewBox="0 0 762 64" fill="none" xmlns="http://www.w3.org/2000/svg">
<path d="M761.057 62.1677H749.531L743.856 46.1019H720.019L714.518 62.1677H702.906L726.393 1.04785H737.744L761.057 62.1677ZM728.314 22.1779L723.25 36.9339H740.625L735.474 22.1779C734.339 18.9472 732.854 14.7562 731.894 11.089H731.807C730.672 15.3674 729.624 18.336 728.314 22.1779Z" fill="#3C1F1B"/>
<path d="M675.79 62.1677H664.963V1.04785H706.437V10.1285H675.79V26.8055H703.206V35.7989H675.79V62.1677Z" fill="#3C1F1B"/>
<path d="M626.13 63.2154C607.183 63.2154 596.182 51.9519 596.182 31.6077C596.182 13.0971 606.921 0 626.13 0C645.165 0 656.079 13.1844 656.079 31.6077C656.079 50.2929 645.165 63.2154 626.13 63.2154ZM626.13 54.3967C632.504 54.3967 637.219 52.3885 640.101 48.2847C643.069 44.2682 644.466 38.4182 644.466 31.6077C644.466 24.6226 642.895 18.7725 640.101 14.9307C637.132 10.8269 632.504 8.81872 626.48 8.81872C619.931 8.81872 615.041 11.0889 612.247 14.6688C609.453 18.2486 607.794 24.7099 607.794 31.6077C607.794 39.0294 609.453 44.8794 611.898 48.1974C615.042 52.3885 620.193 54.3967 626.13 54.3967Z" fill="#3C1F1B"/>
<path d="M587.534 47.4989C587.534 54.0475 588.145 58.0639 591.027 61.9058L590.94 62.1677H579.152C577.231 59.0244 576.707 56.2304 576.707 48.1975C576.707 40.8631 573.302 38.069 564.745 38.069H553.133V62.1677H542.218V1.04785H564.658C576.795 1.04785 589.019 3.23071 589.019 19.2965C589.019 26.8055 585.089 32.0443 579.414 34.3145C585.264 36.5847 587.534 40.9504 587.534 47.4989ZM553.133 29.3376H563.959C571.294 29.3376 578.279 28.4645 578.279 19.7331C578.279 10.3031 571.294 9.86657 564.047 9.86657H553.133V29.3376Z" fill="#3C1F1B"/>
<path d="M503.184 62.1677H481.443V1.04785H503.184C522.393 1.04785 533.22 13.1845 533.22 31.6078C533.22 50.7296 521.869 62.1677 503.184 62.1677ZM492.357 9.86657V53.349H502.311C509.471 53.349 514.622 51.2534 517.591 47.3243C520.472 43.3952 521.607 38.331 521.607 31.6078C521.607 24.7973 520.734 20.3443 517.766 15.9786C514.797 11.6129 509.209 9.86657 502.311 9.86657H492.357Z" fill="#3C1F1B"/>
<path d="M460.441 62.1677H448.915L443.24 46.1019H419.403L413.902 62.1677H402.29L425.777 1.04785H437.128L460.441 62.1677ZM427.698 22.1779L422.634 36.9339H440.009L434.858 22.1779C433.723 18.9472 432.238 14.7562 431.278 11.089H431.191C430.055 15.3674 429.008 18.336 427.698 22.1779Z" fill="#3C1F1B"/>
<path d="M358.365 62.1677H347.975V1.04785H360.286L378.448 33.0048C380.893 37.4578 384.21 43.5698 386.481 48.8087H386.568C386.306 43.3079 386.131 35.1877 386.131 32.0444V1.04785H396.522V62.1677H384.036L365.613 29.5996C363.779 26.4563 360.112 19.7331 358.016 14.6688H357.929C358.191 20.9555 358.365 29.2503 358.365 30.9966V62.1677Z" fill="#3C1F1B"/>
<path d="M335.717 62.1677H324.803V1.04785H335.717V62.1677Z" fill="#3C1F1B"/>
<path d="M298.547 62.1677H287.633V10.3031H267.812V1.04785H318.455V10.3031H298.547V62.1677Z" fill="#3C1F1B"/>
<path d="M223.278 62.1677H212.887V1.04785H225.199L243.36 33.0048C245.805 37.4578 249.123 43.5698 251.393 48.8087H251.48C251.218 43.3079 251.043 35.1877 251.043 32.0444V1.04785H261.434V62.1677H248.948L230.525 29.5996C228.691 26.4563 225.024 19.7331 222.928 14.6688H222.841C223.103 20.9555 223.278 29.2503 223.278 30.9966V62.1677Z" fill="#3C1F1B"/>
<path d="M203.392 62.1677H161.918V1.04785H203.392V10.1285H172.832V26.8055H200.162V35.7989H172.832V53.087H203.392V62.1677Z" fill="#3C1F1B"/>
<path d="M155.407 62.1677H113.933V1.04785H124.76V52.9124H155.407V62.1677Z" fill="#3C1F1B"/>
<path d="M108.002 62.1677H96.4768L90.8014 46.1019H66.9646L61.4638 62.1677H49.8511L73.3386 1.04785H84.6894L108.002 62.1677ZM75.2595 22.1779L70.1953 36.9339H87.5708L82.4192 22.1779C81.2841 18.9472 79.7998 14.7562 78.8394 11.089H78.752C77.6169 15.3674 76.5692 18.336 75.2595 22.1779Z" fill="#3C1F1B"/>
<path d="M33.092 62.1677H21.4793L0 1.04785H11.7874L22.0032 33.616C24.8845 42.6967 26.5435 48.7213 27.242 50.9915H27.3293C27.8532 48.9833 29.8614 42.6967 32.6555 33.616L42.8712 1.04785H54.5713L33.092 62.1677Z" fill="#3C1F1B"/>
</svg>
