<svg width="29" height="54" viewBox="0 0 29 54" fill="none" xmlns="http://www.w3.org/2000/svg">
<path d="M13.9517 0C18.7968 6.33846 17.3912 11.6519 16.8521 13.123C17.8137 14.5217 18.638 16.0155 19.2944 17.5947C18.7141 11.4562 22.1936 6.72053 22.4731 6.39844C24.8006 14.61 21.3727 19.215 20.2729 20.4297C20.8573 22.4999 21.2117 24.6871 21.3374 26.9131C22.6541 21.3114 26.8944 17.9775 27.2339 17.751C27.279 26.3409 22.6858 29.8487 21.3325 30.6963C21.2104 32.7549 20.8939 34.8084 20.3843 36.7969C23.4339 31.9508 28.4886 30.1672 28.8843 30.0615C26.2092 38.081 20.8627 39.9959 19.2124 40.4053C18.4064 42.4289 17.3741 44.3391 16.1128 46.0576C20.6606 43.0297 25.7061 43.2701 26.0981 43.3174C20.6003 49.7309 14.9321 49.4949 13.2437 49.252C10.6723 51.5825 7.48773 53.2584 3.68018 53.9307L3.30908 53.9932L3.25244 53.999C2.96883 54.0148 2.71275 53.813 2.66748 53.5264C2.6225 53.2401 2.80335 52.97 3.07764 52.8975L3.13428 52.8857L3.48291 52.8271C8.90986 51.8692 13.0192 48.7457 15.8169 44.5244C14.4999 42.978 11.085 37.9448 13.4155 29.3984C13.7472 29.7779 18.0397 35.4265 16.7925 42.9131C17.3306 41.9393 17.8083 40.9206 18.2222 39.8662C19.0706 37.7049 19.652 35.4038 19.9731 33.0635C18.5448 32.0047 14.4051 28.2233 14.2183 19.8271C14.5994 20.0879 19.1446 23.6478 20.2212 30.4785C20.4045 27.1183 20.0549 23.7519 19.1753 20.667C15.1691 19.6501 11.5515 16.2555 9.73096 12.6797C9.48387 12.2156 9.28559 11.7266 9.13916 11.2217C9.0283 10.8111 8.97024 10.3882 8.96631 9.96289C11.0104 10.5556 12.996 11.4172 14.7144 12.668C15.0857 12.9379 15.4342 13.2239 15.7642 13.5215C14.5548 11.805 13.1255 10.2373 11.5376 8.83984C10.3717 8.75826 9.16373 8.51283 8.06689 8.2168C5.9398 7.65611 3.94453 6.68017 2.1958 5.3457C1.41261 4.7581 -0.0801953 3.70925 0.00341797 2.5752C3.64516 2.58268 7.17575 3.82899 10.0151 6.10938C10.2524 6.29848 10.4799 6.49946 10.6968 6.71094C10.71 6.71777 10.724 6.72347 10.7368 6.73145L10.7827 6.76465C12.231 7.88381 13.5826 9.13421 14.7983 10.5029C12.5152 5.48892 13.8269 0.374929 13.9517 0Z" fill="#2CADB5"/>
</svg>
