<svg width="0" height="0" class="hidden">
  <symbol xmlns="http://www.w3.org/2000/svg" viewBox="0 0 14 12" id="arrow">
    <path d="M10.1853 0C10.874 3.70861 12.1191 5.24503 13.9999 5.66887L13.7615 6.51656C11.3774 7.01987 9.86742 8.37086 7.2449 12L6.37073 11.4437L9.49655 6.64901H0.344238L0.688609 5.43046H9.9204L9.15218 0.238411L10.1853 0Z"></path>
  </symbol>
  <symbol xmlns="http://www.w3.org/2000/svg" viewBox="0 0 32 33" id="in">
    <path d="M0 2.74442C0 1.47074 1.0587 0.437599 2.36474 0.437599H29.6353C30.9412 0.437599 32 1.47074 32 2.74442V30.3338C32 31.6079 30.9412 32.6406 29.6353 32.6406H2.36474C1.0587 32.6406 0 31.6079 0 30.3338V2.74442Z"></path>
    <path fill-rule="evenodd" clip-rule="evenodd" d="M9.6996 27.395V12.8536H4.86628V27.395H9.6996ZM7.28292 10.8682C8.96839 10.8682 10.0175 9.75154 10.0175 8.35608C9.98605 6.92921 8.9684 5.84358 7.31489 5.84358C5.66156 5.84358 4.58057 6.92921 4.58057 8.35608C4.58057 9.75154 5.62941 10.8682 7.25142 10.8682H7.28292Z"></path>
    <path fill-rule="evenodd" clip-rule="evenodd" d="M12.3745 27.395H17.2078V19.2744C17.2078 18.8398 17.2392 18.4057 17.3668 18.095C17.7162 17.2267 18.5115 16.3273 19.8467 16.3273C21.5957 16.3273 22.2953 17.6608 22.2953 19.6157V27.395H27.1282V19.0571C27.1282 14.5907 24.7437 12.5123 21.5637 12.5123C18.9563 12.5123 17.8116 13.9697 17.1756 14.9624H17.2079V12.8536H12.3746C12.4381 14.218 12.3745 27.395 12.3745 27.395Z"></path>
  </symbol>
  <symbol xmlns="http://www.w3.org/2000/svg" viewBox="0 0 32 26" id="mail">
    <path d="M16 16.351L32 3.14964V2.38297C32 1.59175 31.3401 0.950195 30.5263 0.950195H1.47372C0.659885 0.950195 0 1.59175 0 2.38297V3.14964L16 16.351Z"></path>
    <path d="M16.9642 18.5471C16.6787 18.756 16.3392 18.8604 16 18.8604C15.6608 18.8604 15.3213 18.756 15.0358 18.5471L0 6.05078V24.005C0 24.7962 0.659885 25.4377 1.47372 25.4377H30.5263C31.3401 25.4377 32 24.7962 32 24.005V6.05078L16.9642 18.5471Z"></path>
  </symbol>
  <symbol xmlns="http://www.w3.org/2000/svg" viewBox="0 0 762 64" id="name">
    <path d="M761.057 62.1677H749.531L743.856 46.1019H720.019L714.518 62.1677H702.906L726.393 1.04785H737.744L761.057 62.1677ZM728.314 22.1779L723.25 36.9339H740.625L735.474 22.1779C734.339 18.9472 732.854 14.7562 731.894 11.089H731.807C730.672 15.3674 729.624 18.336 728.314 22.1779Z"></path>
    <path d="M675.79 62.1677H664.963V1.04785H706.437V10.1285H675.79V26.8055H703.206V35.7989H675.79V62.1677Z"></path>
    <path d="M626.13 63.2154C607.183 63.2154 596.182 51.9519 596.182 31.6077C596.182 13.0971 606.921 0 626.13 0C645.165 0 656.079 13.1844 656.079 31.6077C656.079 50.2929 645.165 63.2154 626.13 63.2154ZM626.13 54.3967C632.504 54.3967 637.219 52.3885 640.101 48.2847C643.069 44.2682 644.466 38.4182 644.466 31.6077C644.466 24.6226 642.895 18.7725 640.101 14.9307C637.132 10.8269 632.504 8.81872 626.48 8.81872C619.931 8.81872 615.041 11.0889 612.247 14.6688C609.453 18.2486 607.794 24.7099 607.794 31.6077C607.794 39.0294 609.453 44.8794 611.898 48.1974C615.042 52.3885 620.193 54.3967 626.13 54.3967Z"></path>
    <path d="M587.534 47.4989C587.534 54.0475 588.145 58.0639 591.027 61.9058L590.94 62.1677H579.152C577.231 59.0244 576.707 56.2304 576.707 48.1975C576.707 40.8631 573.302 38.069 564.745 38.069H553.133V62.1677H542.218V1.04785H564.658C576.795 1.04785 589.019 3.23071 589.019 19.2965C589.019 26.8055 585.089 32.0443 579.414 34.3145C585.264 36.5847 587.534 40.9504 587.534 47.4989ZM553.133 29.3376H563.959C571.294 29.3376 578.279 28.4645 578.279 19.7331C578.279 10.3031 571.294 9.86657 564.047 9.86657H553.133V29.3376Z"></path>
    <path d="M503.184 62.1677H481.443V1.04785H503.184C522.393 1.04785 533.22 13.1845 533.22 31.6078C533.22 50.7296 521.869 62.1677 503.184 62.1677ZM492.357 9.86657V53.349H502.311C509.471 53.349 514.622 51.2534 517.591 47.3243C520.472 43.3952 521.607 38.331 521.607 31.6078C521.607 24.7973 520.734 20.3443 517.766 15.9786C514.797 11.6129 509.209 9.86657 502.311 9.86657H492.357Z"></path>
    <path d="M460.441 62.1677H448.915L443.24 46.1019H419.403L413.902 62.1677H402.29L425.777 1.04785H437.128L460.441 62.1677ZM427.698 22.1779L422.634 36.9339H440.009L434.858 22.1779C433.723 18.9472 432.238 14.7562 431.278 11.089H431.191C430.055 15.3674 429.008 18.336 427.698 22.1779Z"></path>
    <path d="M358.365 62.1677H347.975V1.04785H360.286L378.448 33.0048C380.893 37.4578 384.21 43.5698 386.481 48.8087H386.568C386.306 43.3079 386.131 35.1877 386.131 32.0444V1.04785H396.522V62.1677H384.036L365.613 29.5996C363.779 26.4563 360.112 19.7331 358.016 14.6688H357.929C358.191 20.9555 358.365 29.2503 358.365 30.9966V62.1677Z"></path>
    <path d="M335.717 62.1677H324.803V1.04785H335.717V62.1677Z"></path>
    <path d="M298.547 62.1677H287.633V10.3031H267.812V1.04785H318.455V10.3031H298.547V62.1677Z"></path>
    <path d="M223.278 62.1677H212.887V1.04785H225.199L243.36 33.0048C245.805 37.4578 249.123 43.5698 251.393 48.8087H251.48C251.218 43.3079 251.043 35.1877 251.043 32.0444V1.04785H261.434V62.1677H248.948L230.525 29.5996C228.691 26.4563 225.024 19.7331 222.928 14.6688H222.841C223.103 20.9555 223.278 29.2503 223.278 30.9966V62.1677Z"></path>
    <path d="M203.392 62.1677H161.918V1.04785H203.392V10.1285H172.832V26.8055H200.162V35.7989H172.832V53.087H203.392V62.1677Z"></path>
    <path d="M155.407 62.1677H113.933V1.04785H124.76V52.9124H155.407V62.1677Z"></path>
    <path d="M108.002 62.1677H96.4768L90.8014 46.1019H66.9646L61.4638 62.1677H49.8511L73.3386 1.04785H84.6894L108.002 62.1677ZM75.2595 22.1779L70.1953 36.9339H87.5708L82.4192 22.1779C81.2841 18.9472 79.7998 14.7562 78.8394 11.089H78.752C77.6169 15.3674 76.5692 18.336 75.2595 22.1779Z"></path>
    <path d="M33.092 62.1677H21.4793L0 1.04785H11.7874L22.0032 33.616C24.8845 42.6967 26.5435 48.7213 27.242 50.9915H27.3293C27.8532 48.9833 29.8614 42.6967 32.6555 33.616L42.8712 1.04785H54.5713L33.092 62.1677Z"></path>
  </symbol>
  <symbol xmlns="http://www.w3.org/2000/svg" viewBox="0 0 29 54" id="union">
    <path d="M13.9517 0C18.7968 6.33846 17.3912 11.6519 16.8521 13.123C17.8137 14.5217 18.638 16.0155 19.2944 17.5947C18.7141 11.4562 22.1936 6.72053 22.4731 6.39844C24.8006 14.61 21.3727 19.215 20.2729 20.4297C20.8573 22.4999 21.2117 24.6871 21.3374 26.9131C22.6541 21.3114 26.8944 17.9775 27.2339 17.751C27.279 26.3409 22.6858 29.8487 21.3325 30.6963C21.2104 32.7549 20.8939 34.8084 20.3843 36.7969C23.4339 31.9508 28.4886 30.1672 28.8843 30.0615C26.2092 38.081 20.8627 39.9959 19.2124 40.4053C18.4064 42.4289 17.3741 44.3391 16.1128 46.0576C20.6606 43.0297 25.7061 43.2701 26.0981 43.3174C20.6003 49.7309 14.9321 49.4949 13.2437 49.252C10.6723 51.5825 7.48773 53.2584 3.68018 53.9307L3.30908 53.9932L3.25244 53.999C2.96883 54.0148 2.71275 53.813 2.66748 53.5264C2.6225 53.2401 2.80335 52.97 3.07764 52.8975L3.13428 52.8857L3.48291 52.8271C8.90986 51.8692 13.0192 48.7457 15.8169 44.5244C14.4999 42.978 11.085 37.9448 13.4155 29.3984C13.7472 29.7779 18.0397 35.4265 16.7925 42.9131C17.3306 41.9393 17.8083 40.9206 18.2222 39.8662C19.0706 37.7049 19.652 35.4038 19.9731 33.0635C18.5448 32.0047 14.4051 28.2233 14.2183 19.8271C14.5994 20.0879 19.1446 23.6478 20.2212 30.4785C20.4045 27.1183 20.0549 23.7519 19.1753 20.667C15.1691 19.6501 11.5515 16.2555 9.73096 12.6797C9.48387 12.2156 9.28559 11.7266 9.13916 11.2217C9.0283 10.8111 8.97024 10.3882 8.96631 9.96289C11.0104 10.5556 12.996 11.4172 14.7144 12.668C15.0857 12.9379 15.4342 13.2239 15.7642 13.5215C14.5548 11.805 13.1255 10.2373 11.5376 8.83984C10.3717 8.75826 9.16373 8.51283 8.06689 8.2168C5.9398 7.65611 3.94453 6.68017 2.1958 5.3457C1.41261 4.7581 -0.0801953 3.70925 0.00341797 2.5752C3.64516 2.58268 7.17575 3.82899 10.0151 6.10938C10.2524 6.29848 10.4799 6.49946 10.6968 6.71094C10.71 6.71777 10.724 6.72347 10.7368 6.73145L10.7827 6.76465C12.231 7.88381 13.5826 9.13421 14.7983 10.5029C12.5152 5.48892 13.8269 0.374929 13.9517 0Z"></path>
  </symbol>
</svg>