<svg width="72" height="18" viewBox="0 0 72 18" fill="none" xmlns="http://www.w3.org/2000/svg">
<path d="M40.8158 5.8672C40.8158 3.7666 40.8521 1.81087 40.9611 0L35.4003 1.0503V1.55734L35.9455 1.62978C36.3453 1.666 36.5997 1.81087 36.7451 2.02817C36.8905 2.28169 36.9995 2.64386 37.0722 3.18712C37.1449 4.23742 37.2176 6.62777 37.1812 10.3944C37.1812 14.1247 37.1449 16.4789 37.0722 17.3843C39.0712 17.8189 40.634 18 41.7971 18C43.9778 18 45.686 17.3843 46.9218 16.1167C48.1575 14.8853 48.8117 13.1469 48.8117 11.0101C48.8117 9.30785 48.3392 7.89537 47.3942 6.77264C46.4493 5.6499 45.2499 5.10664 43.8324 5.10664C42.8874 5.10664 41.9061 5.36016 40.8158 5.8672ZM40.9248 17.0221C40.8521 15.8632 40.7794 12.3863 40.7794 6.7002C41.1065 6.59155 41.5427 6.51911 42.0878 6.51911C42.9601 6.51911 43.6507 6.95372 44.1595 7.85915C44.6683 8.76459 44.9228 9.85111 44.9228 11.2274C44.9228 12.9296 44.632 14.3058 44.0505 15.4648C43.469 16.5875 42.742 17.167 41.8334 17.167C41.5427 17.0946 41.2519 17.0583 40.9248 17.0221ZM14.5381 0.362173H0V1.08652L0.763251 1.15895C1.34478 1.26761 1.74457 1.48491 1.99899 1.81087C2.25341 2.17304 2.39879 2.75252 2.43513 3.5493C2.7259 7.46076 2.7259 11.1187 2.43513 14.4869C2.36244 15.2837 2.21706 15.8632 1.99899 16.2254C1.74457 16.5875 1.34478 16.8048 0.763251 16.8773L0 16.9859V17.7103H9.37708V16.9859L8.39576 16.9135C8.1563 16.8935 7.92337 16.8255 7.711 16.7134C7.49863 16.6014 7.31121 16.4477 7.16002 16.2616C6.9056 15.8994 6.76022 15.3199 6.72388 14.5231C6.61484 13.0744 6.54215 11.4085 6.54215 9.56137L8.5048 9.59758C9.55881 9.6338 10.2857 10.4306 10.6492 12.0241H11.3761V6.12072H10.6492C10.2857 7.67807 9.59515 8.47485 8.5048 8.51107L6.54215 8.54728C6.54215 5.28773 6.61484 2.96982 6.72388 1.55734H9.59515C11.6305 1.55734 13.0116 2.86117 13.8112 5.46881L14.6835 5.21529L14.5381 0.362173ZM12.8299 11.5171C12.8299 13.4004 13.3751 14.9577 14.4291 16.1891C15.4831 17.4205 17.0459 18 19.0086 18C20.9712 18 22.5704 17.3843 23.7335 16.1167C24.8965 14.8853 25.4417 13.328 25.4417 11.4447C25.4417 9.56137 24.8965 8.00402 23.8425 6.77264C22.7885 5.54125 21.2256 4.96177 19.263 4.96177C17.3004 4.96177 15.7012 5.57746 14.5381 6.84507C13.3751 8.07646 12.8299 9.6338 12.8299 11.5171ZM20.9349 7.38833C21.371 8.43863 21.5527 9.81489 21.5527 11.4809C21.5527 15.3199 20.7532 17.2032 19.1903 17.2032C18.3907 17.2032 17.7728 16.66 17.3367 15.5734C16.9006 14.4869 16.7188 13.1107 16.7188 11.4809C16.7188 7.67807 17.5184 5.79477 19.0813 5.79477C19.8809 5.75855 20.4987 6.30181 20.9349 7.38833ZM51.6466 16.1891C52.846 17.3843 54.3725 18 56.1898 18C57.3165 18 58.2978 17.7827 59.1701 17.3119C60.0424 16.8773 60.733 16.334 61.2054 15.6821L60.842 15.2475C60.0424 15.8632 59.1338 16.1529 58.0798 16.1529C56.6259 16.1529 55.4992 15.6821 54.736 14.7042C53.9364 13.7264 53.5729 12.495 53.6456 10.9014H61.4235C61.4235 9.16298 60.9874 7.7505 60.0787 6.62777C59.1701 5.54125 57.898 4.99799 56.2625 4.99799C54.2272 4.99799 52.6643 5.6499 51.5376 6.9175C50.4109 8.18511 49.8657 9.74245 49.8657 11.5895C49.8657 13.4728 50.4473 14.994 51.6466 16.1891ZM54.3362 7.09859C54.736 6.22938 55.2448 5.79477 55.9354 5.79477C57.0257 5.79477 57.5709 7.17103 57.5709 9.95976L53.7183 10.0322C53.7547 8.94567 53.9364 7.96781 54.3362 7.09859ZM71.2004 5.6499C70.2191 5.21529 68.9833 4.96177 67.4932 4.96177C65.9667 4.96177 64.7673 5.36016 63.8587 6.12072C62.95 6.88129 62.4775 7.82294 62.4775 8.94567C62.4775 9.92354 62.7683 10.6841 63.3135 11.2274C63.8587 11.7706 64.7309 12.2414 65.8576 12.6398C66.8753 13.002 67.6022 13.3642 67.9657 13.6901C68.3291 14.0523 68.5472 14.4507 68.5472 14.994C68.5472 15.501 68.3655 15.9718 67.9657 16.334C67.6022 16.7324 67.0934 16.9135 66.4392 16.9135C64.84 16.9135 63.6406 15.7545 62.8046 13.4366L62.1868 13.6177L62.3322 17.2394C63.6406 17.7465 65.0944 18 66.6936 18C68.3655 18 69.6376 17.6378 70.5825 16.8773C71.5275 16.1529 72 15.1026 72 13.7988C72 12.9296 71.7819 12.2052 71.3094 11.662C70.8369 11.1187 70.0737 10.6479 68.9833 10.2133C67.7839 9.77867 66.948 9.38028 66.5119 9.01811C66.0757 8.65594 65.8576 8.22133 65.8576 7.67807C65.8576 7.13481 66.003 6.7002 66.3301 6.33803C66.6572 5.97585 67.057 5.83099 67.5659 5.83099C69.0197 5.83099 70.0737 6.88129 70.7279 8.94567L71.3458 8.76459L71.2004 5.6499ZM36.2362 5.32394C35.7274 5.07042 35.1822 4.96177 34.5644 4.96177C33.9465 4.96177 33.3286 5.21529 32.6381 5.72233C31.9475 6.22938 31.4387 6.9175 31.0389 7.85915L31.0752 4.96177L25.5507 6.04829V6.55533L26.0959 6.59155C26.7865 6.66398 27.1863 7.20724 27.259 8.18511C27.477 10.4306 27.477 12.8209 27.259 15.3561C27.1863 16.334 26.7865 16.841 26.0959 16.9497L25.5507 17.0221V17.7103H33.2559V17.0221L32.2746 16.9497C31.584 16.8773 31.1842 16.334 31.1116 15.3561C30.8935 13.2555 30.8571 11.0101 31.0389 8.69215C31.2569 8.32998 31.7294 8.11268 32.4563 8.04024C33.1832 7.96781 34.0192 8.18511 34.8915 8.69215L36.2362 5.32394Z" fill="#3C1F1B"/>
</svg>
