<svg width="269" height="26" viewBox="0 0 269 26" fill="none" xmlns="http://www.w3.org/2000/svg">
<path fill-rule="evenodd" clip-rule="evenodd" d="M151.479 2.8421C149.999 0.947345 147.755 0 144.749 0C141.671 0 139.134 0.818695 137.137 2.45615C135.14 4.07014 133.883 6.31583 133.366 9.19301L132.274 15.4036C131.733 18.5614 132.18 21.1228 133.613 23.0878C135.069 25.0293 137.289 26 140.273 26C143.445 26 146.029 25.1812 148.025 23.5439C150.022 21.9064 151.28 19.5906 151.796 16.5964L152.889 10.3859C153.428 7.22802 152.959 4.71346 151.479 2.8421ZM139.04 9.6841C139.604 6.64319 141.26 5.12276 144.008 5.12276C145.324 5.12276 146.252 5.55554 146.793 6.42103C147.356 7.26311 147.509 8.40929 147.25 9.85954L146.122 16.2805C145.864 17.7308 145.3 18.8655 144.431 19.6843C143.563 20.4795 142.446 20.8772 141.083 20.8772C139.815 20.8772 138.898 20.4445 138.334 19.579C137.77 18.69 137.619 17.5087 137.877 16.0351L139.04 9.6841Z" fill="white"/>
<path d="M10.6947 0.455673H5.72605C5.37366 0.455673 5.16207 0.642803 5.09159 1.01706L0.898207 24.8768C0.827723 25.3211 1.01567 25.5435 1.46202 25.5435H5.76125C6.1841 25.5435 6.40739 25.3563 6.43089 24.9822L7.24132 20.3155C8.01658 15.52 8.55677 11.8943 8.86218 9.43816H9.03839C9.17934 10.1633 9.74317 12.4206 10.7299 16.2101L11.7871 19.7891C11.9046 20.1399 12.1396 20.3155 12.492 20.3155H15.6987C16.0041 20.3155 16.2389 20.1751 16.4034 19.8945L18.6586 16.3855C20.5145 13.368 21.9008 10.9937 22.8171 9.26272L22.9931 9.29775C21.9124 14.3737 21.1725 18.0816 20.7732 20.4207L19.9979 24.8768C19.951 25.3211 20.1388 25.5435 20.5617 25.5435H24.8607C25.2367 25.5435 25.4599 25.3563 25.5305 24.9822L29.7238 1.12245C29.7943 0.677948 29.6063 0.455673 29.16 0.455673H24.0151C23.6863 0.455673 23.4395 0.584325 23.2751 0.841627L19.3283 6.91197C18.2241 8.64291 16.7911 11.0639 15.0291 14.175H14.9234C14.5946 12.6311 14.0071 10.2335 13.1614 6.98201L11.3995 0.98203C11.3055 0.631107 11.0706 0.455673 10.6947 0.455673Z" fill="white"/>
<path d="M39.7943 0.455673H35.46C35.084 0.455673 34.8608 0.642803 34.7903 1.01706L30.5617 24.8768C30.5148 25.3211 30.7026 25.5435 31.1255 25.5435H35.4951C35.8476 25.5435 36.0589 25.3563 36.1293 24.9822L40.3581 1.12245C40.4287 0.677948 40.2407 0.455673 39.7943 0.455673Z" fill="white"/>
<path d="M50.6721 0.455673H46.0207C45.6447 0.455673 45.4333 0.642803 45.3862 1.01706L41.1577 24.8768C41.0872 25.3211 41.2635 25.5435 41.6862 25.5435H46.0207C46.373 25.5435 46.5844 25.3563 46.655 24.9822L47.5712 19.7189C48.041 17.1224 48.4874 13.6603 48.9102 9.33278L49.0512 9.26272C49.6621 12.2101 50.4723 14.9938 51.4825 17.6137L54.2664 25.0522C54.4074 25.3797 54.6424 25.5435 54.9714 25.5435H59.5875C59.9634 25.5435 60.1866 25.3563 60.2572 24.9822L64.4857 1.12245C64.5563 0.677948 64.3683 0.455673 63.9219 0.455673H59.623C59.2706 0.455673 59.059 0.642803 58.9885 1.01706L57.9314 7.05214C57.3441 10.5141 56.8741 13.7539 56.5218 16.7714L56.3455 16.8065C55.6878 14.327 54.9596 11.8124 54.1609 9.26272L51.377 0.946947C51.3065 0.61947 51.0715 0.455673 50.6721 0.455673Z" fill="white"/>
<path fill-rule="evenodd" clip-rule="evenodd" d="M78.4665 0.455673H70.1853C69.8094 0.455673 69.5978 0.642803 69.5509 1.01706L65.3222 24.8768C65.2518 25.3211 65.428 25.5435 65.8509 25.5435H74.2729C77.3974 25.5435 79.8877 24.83 81.7436 23.403C83.623 21.9761 84.8448 19.6019 85.4086 16.2801L86.4304 10.4909C86.9942 7.19265 86.5009 4.70136 84.9503 3.01713C83.3998 1.30951 81.2387 0.455673 78.4665 0.455673ZM71.6653 20.4558L74.3083 5.54334H77.8321C79.1006 5.54334 79.9816 5.88268 80.475 6.56103C80.9684 7.21599 81.0858 8.29199 80.8273 9.78909L79.735 16.0347C79.1946 18.982 77.6676 20.4558 75.154 20.4558H71.6653Z" fill="white"/>
<path d="M111.525 0.455673H106.556C106.204 0.455673 105.992 0.642803 105.922 1.01706L101.728 24.8768C101.658 25.3211 101.846 25.5435 102.292 25.5435H106.591C107.014 25.5435 107.237 25.3563 107.261 24.9822L108.071 20.3155C108.847 15.52 109.387 11.8943 109.692 9.43816H109.868C110.009 10.1633 110.573 12.4206 111.56 16.2101L112.617 19.7891C112.735 20.1399 112.97 20.3155 113.322 20.3155H116.529C116.834 20.3155 117.069 20.1751 117.233 19.8945L119.489 16.3855C121.345 13.368 122.731 10.9937 123.647 9.26272L123.823 9.29775C122.742 14.3737 122.002 18.0816 121.603 20.4207L120.828 24.8768C120.781 25.3211 120.969 25.5435 121.392 25.5435H125.691C126.067 25.5435 126.29 25.3563 126.36 24.9822L130.554 1.12245C130.624 0.677948 130.436 0.455673 129.99 0.455673H124.845C124.516 0.455673 124.27 0.584325 124.105 0.841627L120.158 6.91197C119.054 8.64291 117.621 11.0639 115.859 14.175H115.753C115.424 12.6311 114.837 10.2335 113.991 6.98201L112.23 0.98203C112.136 0.631107 111.901 0.455673 111.525 0.455673Z" fill="white"/>
<path d="M164.031 0.455673H159.38C159.003 0.455673 158.791 0.642803 158.745 1.01706L154.516 24.8768C154.446 25.3211 154.622 25.5435 155.045 25.5435H159.38C159.732 25.5435 159.944 25.3563 160.013 24.9822L160.929 19.7189C161.4 17.1224 161.847 13.6603 162.268 9.33278L162.41 9.26272C163.021 12.2101 163.831 14.9938 164.842 17.6137L167.625 25.0522C167.766 25.3797 168.001 25.5435 168.33 25.5435H172.947C173.322 25.5435 173.546 25.3563 173.615 24.9822L177.845 1.12245C177.916 0.677948 177.727 0.455673 177.281 0.455673H172.982C172.628 0.455673 172.418 0.642803 172.347 1.01706L171.291 7.05214C170.702 10.5141 170.233 13.7539 169.88 16.7714L169.704 16.8065C169.046 14.327 168.319 11.8124 167.52 9.26272L164.735 0.946947C164.666 0.61947 164.431 0.455673 164.031 0.455673Z" fill="white"/>
<path d="M198.057 0.455673H183.574C183.222 0.455673 183.01 0.642803 182.94 1.01706L178.676 24.8768C178.628 25.3211 178.817 25.5435 179.24 25.5435H194.287C194.662 25.5435 194.886 25.3563 194.957 24.9822L195.59 21.1573C195.638 20.713 195.45 20.4909 195.026 20.4909H185.054L185.97 15.2627H194.463C194.815 15.2627 195.026 15.0755 195.097 14.7013L195.766 11.017C195.837 10.5726 195.661 10.3505 195.238 10.3505H186.852L187.733 5.47328H197.317C197.669 5.47328 197.881 5.28615 197.952 4.91189L198.621 1.12245C198.692 0.677948 198.503 0.455673 198.057 0.455673Z" fill="white"/>
<path d="M205.676 0.455673H201.094C200.882 0.455673 200.73 0.525788 200.635 0.666135C200.543 0.78309 200.53 0.935316 200.601 1.12245L205.288 16.526L203.737 24.8768C203.666 25.3211 203.854 25.5435 204.301 25.5435H208.706C209.058 25.5435 209.27 25.3563 209.34 24.9822L210.926 16.6311L220.898 1.19249C221.016 0.981976 221.039 0.806488 220.969 0.666135C220.898 0.525788 220.745 0.455673 220.51 0.455673H215.648C215.342 0.455673 215.107 0.595961 214.943 0.876656L208.952 11.3329H208.882L206.309 0.98203C206.239 0.631107 206.028 0.455673 205.676 0.455673Z" fill="white"/>
<path d="M244.86 0.455673H230.376C230.024 0.455673 229.812 0.642803 229.743 1.01706L225.478 24.8768C225.432 25.3211 225.62 25.5435 226.042 25.5435H241.09C241.465 25.5435 241.689 25.3563 241.759 24.9822L242.394 21.1573C242.44 20.713 242.252 20.4909 241.83 20.4909H231.857L232.773 15.2627H241.266C241.618 15.2627 241.83 15.0755 241.899 14.7013L242.57 11.017C242.639 10.5726 242.463 10.3505 242.041 10.3505H233.654L234.534 5.47328H244.12C244.473 5.47328 244.684 5.28615 244.754 4.91189L245.424 1.12245C245.494 0.677948 245.307 0.455673 244.86 0.455673Z" fill="white"/>
<path d="M254.734 0.455673H250.294C249.942 0.455673 249.731 0.642803 249.66 1.01706L247.052 15.5786C246.512 18.8067 246.935 21.3445 248.32 23.1925C249.731 25.0405 251.881 25.9645 254.769 25.9645C257.871 25.9645 260.338 25.1811 262.17 23.6138C264.026 22.0231 265.2 19.7775 265.693 16.8768L268.443 1.12245C268.489 0.677948 268.302 0.455673 267.879 0.455673H263.438C263.086 0.455673 262.874 0.642803 262.805 1.01706L260.126 16.4557C259.868 17.8825 259.338 18.9704 258.54 19.7189C257.764 20.4441 256.779 20.8068 255.58 20.8068C254.406 20.8068 253.547 20.4206 253.008 19.6486C252.468 18.8533 252.326 17.7071 252.585 16.2101L255.298 1.12245C255.369 0.677948 255.18 0.455673 254.734 0.455673Z" fill="white"/>
<path d="M98.8096 12.6309H90.2114C89.8591 12.6309 89.6475 12.8181 89.5771 13.1924L88.9428 16.7712C88.8724 17.2157 89.0486 17.4381 89.4714 17.4381H98.0696C98.4221 17.4381 98.6335 17.2626 98.7041 16.9117L99.3382 13.2977C99.4088 12.8533 99.2326 12.6309 98.8096 12.6309Z" fill="white"/>
<path d="M221.637 20.6664C221.12 19.9881 220.38 19.6487 219.418 19.6487C218.548 19.6487 217.82 19.9063 217.232 20.4208C216.645 20.9121 216.27 21.567 216.105 22.3857C215.917 23.3682 216.081 24.1986 216.599 24.8769C217.138 25.5552 217.879 25.8945 218.818 25.8945C219.711 25.8945 220.451 25.6489 221.038 25.1577C221.65 24.6431 222.025 23.9763 222.166 23.1577C222.331 22.1517 222.155 21.3214 221.637 20.6664Z" fill="white"/>
</svg>
