<svg width="52" height="50" viewBox="0 0 52 50" fill="none" xmlns="http://www.w3.org/2000/svg">
<path d="M50.5016 0.0705357H36.1298C35.9855 0.0705357 35.8503 0.1411 35.7677 0.259499L1.56931 49.3061C1.36525 49.5987 1.57465 50 1.93142 50H16.4086C16.5571 50 16.6956 49.9254 16.7773 49.8013L25.371 36.7507C25.5408 36.493 25.9158 36.4845 26.0971 36.7343L35.5875 49.8178C35.6705 49.9322 35.8034 50 35.9448 50H49.6649C50.0199 50 50.2297 49.6023 50.0293 49.3093L33.5825 25.266C33.4775 25.1125 33.4799 24.9097 33.5886 24.7588L50.8598 0.769922C51.0701 0.477909 50.8614 0.0705357 50.5016 0.0705357Z" fill="white"/>
<path d="M15.2629 5.72205e-06H1.48955C1.13144 5.72205e-06 0.922353 0.403944 1.12911 0.696332L14.4919 19.5938C14.6456 19.811 14.955 19.844 15.151 19.664L16.1691 18.7289C20.2461 14.9843 21.0695 8.86329 18.1269 4.17448L15.6368 0.206796C15.5561 0.0781192 15.4148 5.72205e-06 15.2629 5.72205e-06Z" fill="white"/>
</svg>
