<svg width="195" height="54" viewBox="0 0 195 54" fill="none" xmlns="http://www.w3.org/2000/svg">
<path d="M54.5856 0H27.5652V0.0067765C20.3813 0.0116169 13.5933 2.81902 8.50999 7.91495C3.43157 13.0041 0.644531 19.7806 0.644531 26.9947C0.644531 34.2078 3.44609 40.9862 8.52548 46.0763C13.6117 51.1742 20.3929 54 27.6175 54C27.7898 54 27.9631 53.9787 28.1286 53.9787H54.5866V47.2187H27.5652V47.2235C22.2041 47.2187 17.0976 45.116 13.2903 41.3018C9.48483 37.4866 7.39866 32.4062 7.39866 26.9966C7.39866 21.587 9.49838 16.5066 13.3048 12.6924C17.1151 8.87238 22.1993 6.78328 27.6165 6.78328C27.7753 6.78328 27.9331 6.76295 28.0851 6.76295H54.5856V0Z" fill="white"/>
<path d="M36.1976 11.8045H27.6012C27.4086 11.8045 27.2208 11.8151 27.0369 11.8451C18.942 12.1443 12.4482 18.8298 12.4482 27.0032C12.4482 35.3664 19.2459 42.1729 27.6022 42.1729H35.9924L42.7901 35.4119H27.6003C22.9691 35.4119 19.2014 31.6345 19.2014 27.0003C19.2014 22.3652 22.9691 18.5974 27.6003 18.5974C27.7677 18.5974 27.9333 18.5645 28.0949 18.5645H42.9091L36.1976 11.8045Z" fill="white"/>
<path d="M54.5848 11.8045H42.8955L49.608 18.5645H54.5848V11.8045Z" fill="white"/>
<path d="M54.5853 35.4123H49.535L42.7354 42.1733H54.5853V35.4123Z" fill="white"/>
<path d="M24.2275 26.9912C24.2275 28.8586 25.7396 30.3707 27.6051 30.3707H47.8472L51.2508 26.9864L47.9004 23.6107H27.6041C25.7396 23.6097 24.2275 25.1228 24.2275 26.9912Z" fill="white"/>
<path d="M94.7837 37.9955C91.7449 41.0392 87.7101 42.5542 83.7168 42.5542C73.4738 42.5542 68.135 35.3876 68.0934 27.1793C68.0053 19.0562 73.2996 11.4539 83.7168 11.4539C87.7101 11.4539 91.7459 12.9748 94.7837 16.0145L93.1777 17.4047C90.5746 14.7996 87.1457 13.5382 83.7168 13.5382C74.863 13.5382 70.3044 19.7939 70.348 27.0912C70.4361 34.2152 74.9501 40.3838 83.7168 40.3838C87.1457 40.3838 90.6171 39.0798 93.2212 36.5183L94.7837 37.9955Z" fill="white"/>
<path d="M100.807 25.8604H118.607V28.0075H100.807V39.9187H120.002V42.1724H98.4487V11.803H120.429V14.0557H100.806L100.807 25.8604Z" fill="white"/>
<path d="M143.886 11.803H146.372V11.865L136.059 26.5884L147.23 42.1404V42.1704H144.448L134.639 28.2709L124.829 42.1704H122.033V42.1404L133.202 26.5884L122.891 11.865V11.803H125.437L134.639 24.7916L143.886 11.803Z" fill="white"/>
<path d="M157.525 42.2062V11.803H159.778V42.1724H157.525V42.2062Z" fill="white"/>
<path d="M194.686 27.0267C194.642 35.0191 189.564 42.7085 179.365 42.7085C169.166 42.7085 164.044 34.9765 164.044 26.9396C164.044 18.772 169.125 11.3014 179.365 11.3014C189.609 11.3014 194.728 18.8155 194.686 27.0267ZM166.346 26.9832C166.387 33.8449 170.726 40.5342 179.365 40.5342C188.046 40.5342 192.43 33.8449 192.43 26.9832C192.43 19.9463 188.091 13.4728 179.365 13.4728C170.641 13.4728 166.3 19.8156 166.346 26.9832Z" fill="white"/>
<path d="M149.036 28.6673C149.955 28.6673 150.7 27.9222 150.7 27.0032C150.7 26.0841 149.955 25.3391 149.036 25.3391C148.117 25.3391 147.372 26.0841 147.372 27.0032C147.372 27.9222 148.117 28.6673 149.036 28.6673Z" fill="white"/>
</svg>
