<svg width="159" height="56" viewBox="0 0 159 56" fill="none" xmlns="http://www.w3.org/2000/svg">
<path d="M34.8402 19.4397C34.8165 19.416 34.7928 19.3923 34.7455 19.3686L11.0019 0.883185C10.7296 0.68187 10.3743 0.634502 10.0782 0.776606C9.77034 0.906869 9.58086 1.2266 9.58086 1.55818L9.13086 31.6962V32.1225V32.1699C9.13086 40.9922 16.2954 48.1685 25.1296 48.1685C33.9639 48.1685 41.1286 41.004 41.1286 32.1699C41.1521 26.9831 38.6652 22.3647 34.8402 19.4397ZM11.3098 3.34633L28.1139 16.4081C27.1546 16.2305 26.1599 16.1357 25.1296 16.1357C19.0191 16.1357 13.7019 19.5818 10.9901 24.6265L11.3098 3.34633ZM25.1415 46.3922C17.302 46.3922 10.919 40.0093 10.8953 32.1699V31.7436C11.1203 24.0818 17.4204 17.9239 25.1178 17.9239C32.9573 17.9239 39.364 24.3068 39.364 32.1699C39.3876 39.9975 33.0047 46.3922 25.1415 46.3922Z" fill="white"/>
<path d="M25.3196 26.2024C25.2959 26.2024 25.2959 26.1787 25.2959 26.1787L1.65898 7.11298C1.38661 6.88798 1.03135 6.84062 0.723451 7.00641C0.415554 7.13667 0.22608 7.4564 0.22608 7.78798L0.178711 38.9089V39.0155V39.3234C0.178711 48.1457 7.34322 55.322 16.1775 55.322C25.0117 55.322 32.1764 48.1575 32.1764 39.3352C32.1999 33.9115 29.4644 29.0918 25.3196 26.2024ZM1.96688 9.6235L19.3275 23.6208C18.2972 23.4195 17.2433 23.3129 16.1656 23.3129C9.98403 23.3129 4.584 26.8537 1.94319 32.005L1.96688 9.6235ZM16.1775 53.5575C8.33797 53.5575 1.93135 47.1746 1.93135 39.3115C1.93135 31.4721 8.31428 25.0655 16.1775 25.0655C24.017 25.0655 30.4236 31.4484 30.4236 39.3115C30.4236 47.1746 24.0407 53.5575 16.1775 53.5575Z" fill="white"/>
<path d="M1.09923 8.66469C0.803175 8.66469 0.542648 8.53443 0.365015 8.26206C0.0926452 7.85943 0.211067 7.30286 0.613701 7.03049L9.98086 0.825257C10.3835 0.55289 10.9401 0.67131 11.2124 1.07394C11.4848 1.47657 11.3664 2.03315 10.9638 2.30551L1.58476 8.49891C1.43081 8.61733 1.25318 8.66469 1.09923 8.66469Z" fill="white"/>
<path d="M58.2509 41.1239C57.7298 41.1002 57.1969 41.0766 56.6877 41.0292C56.1785 40.9818 55.6338 40.9345 55.1246 40.8752C54.6035 40.8042 54.1417 40.7213 53.7153 40.6029V18.4701C54.1417 18.3635 54.6153 18.2688 55.1246 18.1977C55.6456 18.1267 56.1548 18.0911 56.6877 18.0438C57.2088 17.9964 57.7417 17.9727 58.2509 17.949C58.7719 17.9254 59.2338 17.9254 59.7075 17.9254C60.9864 17.9254 62.1943 18.0201 63.3193 18.2214C64.4443 18.4227 65.4272 18.7543 66.2325 19.228C67.0615 19.7017 67.7128 20.3293 68.1865 21.0872C68.6601 21.8451 68.9088 22.8161 68.9088 23.9293C68.9088 25.1845 68.6128 26.2148 68.0325 27.0201C67.4522 27.8253 66.6825 28.4293 65.7233 28.8082C67.0259 29.2108 68.0799 29.8385 68.8378 30.6911C69.5957 31.5437 69.9983 32.7516 69.9983 34.3148C69.9983 36.6003 69.1694 38.3292 67.5351 39.466C65.9009 40.6029 63.2956 41.195 59.743 41.195C59.2575 41.1476 58.7601 41.1476 58.2509 41.1239ZM60.0627 27.7424C60.8206 27.7424 61.5667 27.695 62.2417 27.5885C62.9404 27.4819 63.5206 27.2806 64.0299 27.0082C64.5272 26.7122 64.9299 26.3569 65.2141 25.8832C65.5101 25.4095 65.6404 24.8293 65.6404 24.1306C65.6404 23.4793 65.4864 22.9227 65.1904 22.4727C64.8943 22.0227 64.468 21.6674 63.9588 21.3714C63.4378 21.099 62.822 20.8977 62.1233 20.7674C61.4009 20.6372 60.6667 20.5661 59.8851 20.5661C59.1035 20.5661 58.4759 20.5661 58.0259 20.5898C57.5759 20.6135 57.1732 20.6372 56.818 20.6846V27.7424H60.0627ZM56.7706 38.3411C57.0193 38.3647 57.2917 38.3884 57.5996 38.4121C57.8719 38.4358 58.2035 38.4595 58.5825 38.4595C58.9614 38.4595 59.3877 38.4832 59.8851 38.4832C60.8088 38.4832 61.6733 38.4121 62.5022 38.3055C63.3312 38.1989 64.0535 37.9739 64.6812 37.6542C65.3088 37.3463 65.8062 36.92 66.1851 36.3753C66.5641 35.8187 66.7417 35.1437 66.7417 34.2911C66.7417 33.5569 66.6115 32.9056 66.3154 32.3845C66.043 31.8635 65.6404 31.4608 65.1075 31.1529C64.5864 30.845 63.9706 30.62 63.2246 30.5016C62.5022 30.3714 61.6733 30.3003 60.7851 30.3003H56.7706V38.3411Z" fill="white"/>
<path d="M73.2495 20.1752C72.8705 19.8199 72.6929 19.3225 72.6929 18.7186C72.6929 18.1147 72.8705 17.6173 73.2495 17.262C73.6284 16.9068 74.0784 16.7291 74.6113 16.7291C75.1442 16.7291 75.5942 16.9068 75.9732 17.262C76.3521 17.6173 76.5297 18.1147 76.5297 18.7186C76.5297 19.3225 76.3521 19.8199 75.9732 20.1752C75.5942 20.5304 75.1442 20.7081 74.6113 20.7081C74.0784 20.7081 73.6284 20.5304 73.2495 20.1752Z" fill="white"/>
<path d="M73.1216 23.822H76.1058V40.9574H73.1216V23.822Z" fill="white"/>
<path d="M89.1974 39.9163C88.4632 40.1887 87.6106 40.3189 86.6158 40.3189C85.6092 40.3189 84.6619 40.165 83.7737 39.8216C82.8737 39.49 82.1158 38.9926 81.4408 38.2939C80.7658 37.5952 80.2566 36.7426 79.8776 35.7124C79.4987 34.6821 79.2974 33.4505 79.2974 32.0176C79.2974 30.7624 79.475 29.6255 79.8303 28.5716C80.1855 27.5177 80.7303 26.6177 81.4171 25.8598C82.1158 25.1019 82.9684 24.5098 83.975 24.0953C84.9816 23.6808 86.1303 23.444 87.3856 23.444C88.7711 23.444 89.979 23.5506 91.033 23.7519C92.0632 23.9532 92.9395 24.1545 93.6501 24.3322V39.6321C93.6501 42.2729 92.9751 44.1794 91.6606 45.3636C90.3461 46.5478 88.3211 47.1281 85.6329 47.1281C84.579 47.1281 83.5961 47.0334 82.6487 46.8557C81.7132 46.6781 80.8961 46.4768 80.2329 46.2281L80.7658 43.5636C81.3697 43.8123 82.0921 44.0136 82.9566 44.2149C83.8329 44.3926 84.7211 44.4873 85.6685 44.4873C87.4329 44.4873 88.7119 44.1321 89.5053 43.386C90.2869 42.6636 90.6658 41.5031 90.6658 39.94V39.2176C90.429 39.4189 89.9316 39.6439 89.1974 39.9163ZM89.4579 26.2742C88.9606 26.2032 88.2737 26.1677 87.4211 26.1677C85.8106 26.1677 84.579 26.7006 83.7027 27.7782C82.8263 28.8558 82.4 30.2887 82.4 32.0532C82.4 33.0361 82.5303 33.8887 82.7553 34.5874C83.004 35.286 83.3355 35.8663 83.7382 36.34C84.1645 36.8137 84.6382 37.1452 85.1948 37.3702C85.7277 37.5952 86.2961 37.7018 86.8764 37.7018C87.6579 37.7018 88.404 37.5952 89.0553 37.3702C89.7303 37.1452 90.2395 36.8729 90.6185 36.565V26.5466C90.3579 26.4282 89.9553 26.3571 89.4579 26.2742Z" fill="white"/>
<path d="M97.9146 24.3428C98.4712 22.8388 99.2647 21.6072 100.224 20.6007C101.183 19.5941 102.332 18.848 103.634 18.3388C104.937 17.8178 106.299 17.5809 107.755 17.5809C109.188 17.5809 110.538 17.8296 111.806 18.3388C113.084 18.8599 114.198 19.5941 115.169 20.6007C116.14 21.6072 116.898 22.8388 117.454 24.3428C118.011 25.8467 118.307 27.5638 118.307 29.5177C118.307 31.4717 118.011 33.1888 117.454 34.6927C116.898 36.1966 116.128 37.4282 115.169 38.4348C114.209 39.4414 113.084 40.1874 111.806 40.6966C110.527 41.2177 109.188 41.4545 107.755 41.4545C106.299 41.4545 104.937 41.2058 103.634 40.6966C102.332 40.1756 101.219 39.4414 100.224 38.4348C99.2647 37.4282 98.4712 36.1966 97.9146 34.6927C97.3581 33.1888 97.062 31.4717 97.062 29.5177C97.062 27.5638 97.3225 25.8467 97.9146 24.3428ZM100.84 33.2835C101.171 34.4085 101.669 35.3677 102.296 36.173C102.924 36.9545 103.705 37.5822 104.605 38.0085C105.529 38.4348 106.536 38.6598 107.673 38.6598C108.809 38.6598 109.828 38.4348 110.716 38.0085C111.604 37.5822 112.374 36.9782 113.002 36.173C113.629 35.3914 114.127 34.4203 114.458 33.2835C114.79 32.1467 114.979 30.8914 114.979 29.5177C114.979 28.1322 114.802 26.877 114.458 25.752C114.127 24.627 113.629 23.6678 113.002 22.8625C112.374 22.0809 111.616 21.4533 110.716 21.027C109.816 20.6007 108.786 20.3757 107.673 20.3757C106.548 20.3757 105.517 20.6007 104.605 21.027C103.694 21.4533 102.924 22.0572 102.296 22.8625C101.669 23.6441 101.171 24.6151 100.84 25.752C100.508 26.8888 100.319 28.1441 100.319 29.5177C100.33 30.9033 100.508 32.1585 100.84 33.2835Z" fill="white"/>
<path d="M135.547 38.2099C134.943 37.2033 134.268 36.1493 133.581 35.0717C132.859 33.9704 132.148 32.8809 131.39 31.7559C130.632 30.631 129.863 29.5652 129.128 28.5112C128.394 27.4573 127.648 26.4981 126.95 25.5507C126.251 24.627 125.588 23.8218 124.996 23.1113V40.9454H121.952V18.1139H124.415C125.422 19.2152 126.5 20.4942 127.636 21.9507C128.773 23.4073 129.922 24.9112 131.047 26.4744C132.172 28.0257 133.226 29.5415 134.232 31.0454C135.215 32.5494 136.068 33.8638 136.743 35.0362V18.1139H139.786V40.9454H137.193C136.696 40.1401 136.151 39.2164 135.547 38.2099Z" fill="white"/>
<path d="M144.11 18.1139H157.681V20.8494H147.224V27.6349H156.52V30.2994H147.224V38.2099H158.486V40.9454H144.11V18.1139Z" fill="white"/>
</svg>
